<mxfile host="app.diagrams.net" modified="2023-08-10T07:51:11.677Z" agent="Mozilla/5.0 (Windows NT 10.0; Win64; x64) AppleWebKit/537.36 (KHTML, like Gecko) Chrome/115.0.0.0 Safari/537.36" etag="9754E9LzkpvN_NRfp7ba" version="21.6.7" type="device">
  <diagram name="Page-1" id="c37626ed-c26b-45fb-9056-f9ebc6bb27b6">
    <mxGraphModel dx="3187" dy="1099" grid="1" gridSize="10" guides="1" tooltips="1" connect="1" arrows="1" fold="1" page="1" pageScale="1" pageWidth="1100" pageHeight="850" background="none" math="0" shadow="0">
      <root>
        <mxCell id="0" />
        <mxCell id="1" parent="0" />
        <mxCell id="t8sbnZ9TbKj6j1BG3d-X-81" style="rounded=0;orthogonalLoop=1;jettySize=auto;html=1;entryX=0;entryY=1;entryDx=0;entryDy=0;" edge="1" parent="1" source="t8sbnZ9TbKj6j1BG3d-X-2" target="t8sbnZ9TbKj6j1BG3d-X-74">
          <mxGeometry relative="1" as="geometry" />
        </mxCell>
        <mxCell id="t8sbnZ9TbKj6j1BG3d-X-82" style="rounded=0;orthogonalLoop=1;jettySize=auto;html=1;entryX=1;entryY=0.5;entryDx=0;entryDy=0;" edge="1" parent="1" source="t8sbnZ9TbKj6j1BG3d-X-2" target="t8sbnZ9TbKj6j1BG3d-X-72">
          <mxGeometry relative="1" as="geometry" />
        </mxCell>
        <mxCell id="t8sbnZ9TbKj6j1BG3d-X-84" style="rounded=0;orthogonalLoop=1;jettySize=auto;html=1;entryX=1;entryY=0.5;entryDx=0;entryDy=0;" edge="1" parent="1" source="t8sbnZ9TbKj6j1BG3d-X-2" target="t8sbnZ9TbKj6j1BG3d-X-73">
          <mxGeometry relative="1" as="geometry" />
        </mxCell>
        <mxCell id="t8sbnZ9TbKj6j1BG3d-X-2" value="&lt;b&gt;Đặt hàng&lt;/b&gt;" style="rhombus;whiteSpace=wrap;html=1;fillColor=#CCFFFF;" vertex="1" parent="1">
          <mxGeometry x="210" y="590" width="80" height="80" as="geometry" />
        </mxCell>
        <mxCell id="t8sbnZ9TbKj6j1BG3d-X-76" style="rounded=0;orthogonalLoop=1;jettySize=auto;html=1;" edge="1" parent="1" source="t8sbnZ9TbKj6j1BG3d-X-3" target="t8sbnZ9TbKj6j1BG3d-X-67">
          <mxGeometry relative="1" as="geometry" />
        </mxCell>
        <mxCell id="t8sbnZ9TbKj6j1BG3d-X-77" style="rounded=0;orthogonalLoop=1;jettySize=auto;html=1;entryX=1;entryY=0.5;entryDx=0;entryDy=0;" edge="1" parent="1" source="t8sbnZ9TbKj6j1BG3d-X-3" target="t8sbnZ9TbKj6j1BG3d-X-65">
          <mxGeometry relative="1" as="geometry" />
        </mxCell>
        <mxCell id="t8sbnZ9TbKj6j1BG3d-X-78" style="rounded=0;orthogonalLoop=1;jettySize=auto;html=1;entryX=-0.008;entryY=0.652;entryDx=0;entryDy=0;entryPerimeter=0;" edge="1" parent="1" source="t8sbnZ9TbKj6j1BG3d-X-3" target="t8sbnZ9TbKj6j1BG3d-X-63">
          <mxGeometry relative="1" as="geometry" />
        </mxCell>
        <mxCell id="t8sbnZ9TbKj6j1BG3d-X-79" style="rounded=0;orthogonalLoop=1;jettySize=auto;html=1;entryX=0;entryY=0.5;entryDx=0;entryDy=0;" edge="1" parent="1" source="t8sbnZ9TbKj6j1BG3d-X-3" target="t8sbnZ9TbKj6j1BG3d-X-64">
          <mxGeometry relative="1" as="geometry" />
        </mxCell>
        <mxCell id="t8sbnZ9TbKj6j1BG3d-X-3" value="&lt;b&gt;Giao hàng&lt;/b&gt;" style="rhombus;whiteSpace=wrap;html=1;fillColor=#CCFFFF;" vertex="1" parent="1">
          <mxGeometry x="530" y="590" width="80" height="80" as="geometry" />
        </mxCell>
        <mxCell id="t8sbnZ9TbKj6j1BG3d-X-9" value="" style="rounded=0;orthogonalLoop=1;jettySize=auto;html=1;fillColor=#E6E6E6;" edge="1" parent="1" source="t8sbnZ9TbKj6j1BG3d-X-4" target="t8sbnZ9TbKj6j1BG3d-X-7">
          <mxGeometry relative="1" as="geometry" />
        </mxCell>
        <mxCell id="t8sbnZ9TbKj6j1BG3d-X-10" value="" style="rounded=0;orthogonalLoop=1;jettySize=auto;html=1;entryX=0.99;entryY=0.349;entryDx=0;entryDy=0;entryPerimeter=0;fillColor=#E6E6E6;" edge="1" parent="1" source="t8sbnZ9TbKj6j1BG3d-X-4" target="t8sbnZ9TbKj6j1BG3d-X-8">
          <mxGeometry relative="1" as="geometry" />
        </mxCell>
        <mxCell id="t8sbnZ9TbKj6j1BG3d-X-12" value="" style="rounded=0;orthogonalLoop=1;jettySize=auto;html=1;fillColor=#E6E6E6;" edge="1" parent="1" source="t8sbnZ9TbKj6j1BG3d-X-4" target="t8sbnZ9TbKj6j1BG3d-X-5">
          <mxGeometry relative="1" as="geometry" />
        </mxCell>
        <mxCell id="t8sbnZ9TbKj6j1BG3d-X-14" value="" style="rounded=0;orthogonalLoop=1;jettySize=auto;html=1;entryX=0;entryY=0;entryDx=0;entryDy=0;fillColor=#E6E6E6;exitX=0.75;exitY=1;exitDx=0;exitDy=0;" edge="1" parent="1" source="t8sbnZ9TbKj6j1BG3d-X-4" target="t8sbnZ9TbKj6j1BG3d-X-6">
          <mxGeometry relative="1" as="geometry">
            <mxPoint x="339.9999999999999" y="890" as="targetPoint" />
          </mxGeometry>
        </mxCell>
        <mxCell id="t8sbnZ9TbKj6j1BG3d-X-4" value="Hàng hóa" style="rounded=1;whiteSpace=wrap;html=1;fillColor=#E6E6E6;" vertex="1" parent="1">
          <mxGeometry x="120" y="770" width="120" height="60" as="geometry" />
        </mxCell>
        <mxCell id="t8sbnZ9TbKj6j1BG3d-X-5" value="Mã hàng" style="ellipse;whiteSpace=wrap;html=1;fillColor=#E6E6E6;" vertex="1" parent="1">
          <mxGeometry x="120" y="890" width="90" height="60" as="geometry" />
        </mxCell>
        <mxCell id="t8sbnZ9TbKj6j1BG3d-X-6" value="Tên hàng" style="ellipse;whiteSpace=wrap;html=1;fillColor=#E6E6E6;" vertex="1" parent="1">
          <mxGeometry x="290" y="890" width="100" height="60" as="geometry" />
        </mxCell>
        <mxCell id="t8sbnZ9TbKj6j1BG3d-X-7" value="Đơn vị tính" style="ellipse;whiteSpace=wrap;html=1;fillColor=#E6E6E6;" vertex="1" parent="1">
          <mxGeometry x="-40" y="780" width="90" height="60" as="geometry" />
        </mxCell>
        <mxCell id="t8sbnZ9TbKj6j1BG3d-X-8" value="Mô tả hàng" style="ellipse;whiteSpace=wrap;html=1;fillColor=#E6E6E6;" vertex="1" parent="1">
          <mxGeometry x="-40" y="880" width="90" height="60" as="geometry" />
        </mxCell>
        <mxCell id="t8sbnZ9TbKj6j1BG3d-X-16" value="" style="rounded=0;orthogonalLoop=1;jettySize=auto;html=1;fillColor=#E6E6E6;" edge="1" parent="1" source="t8sbnZ9TbKj6j1BG3d-X-20" target="t8sbnZ9TbKj6j1BG3d-X-23">
          <mxGeometry relative="1" as="geometry" />
        </mxCell>
        <mxCell id="t8sbnZ9TbKj6j1BG3d-X-17" value="" style="rounded=0;orthogonalLoop=1;jettySize=auto;html=1;entryX=0.99;entryY=0.349;entryDx=0;entryDy=0;entryPerimeter=0;fillColor=#E6E6E6;" edge="1" parent="1" source="t8sbnZ9TbKj6j1BG3d-X-20" target="t8sbnZ9TbKj6j1BG3d-X-24">
          <mxGeometry relative="1" as="geometry" />
        </mxCell>
        <mxCell id="t8sbnZ9TbKj6j1BG3d-X-18" value="" style="rounded=0;orthogonalLoop=1;jettySize=auto;html=1;fillColor=#E6E6E6;" edge="1" parent="1" source="t8sbnZ9TbKj6j1BG3d-X-20" target="t8sbnZ9TbKj6j1BG3d-X-21">
          <mxGeometry relative="1" as="geometry" />
        </mxCell>
        <mxCell id="t8sbnZ9TbKj6j1BG3d-X-19" value="" style="rounded=0;orthogonalLoop=1;jettySize=auto;html=1;entryX=0;entryY=0.5;entryDx=0;entryDy=0;fillColor=#E6E6E6;" edge="1" parent="1" source="t8sbnZ9TbKj6j1BG3d-X-20" target="t8sbnZ9TbKj6j1BG3d-X-22">
          <mxGeometry relative="1" as="geometry">
            <mxPoint x="574.9999999999999" y="250" as="targetPoint" />
          </mxGeometry>
        </mxCell>
        <mxCell id="t8sbnZ9TbKj6j1BG3d-X-20" value="Đơn vị khách hàng" style="rounded=1;whiteSpace=wrap;html=1;fillColor=#E6E6E6;" vertex="1" parent="1">
          <mxGeometry x="355" y="130" width="120" height="60" as="geometry" />
        </mxCell>
        <mxCell id="t8sbnZ9TbKj6j1BG3d-X-21" value="Mã HK" style="ellipse;whiteSpace=wrap;html=1;fillColor=#E6E6E6;" vertex="1" parent="1">
          <mxGeometry x="485" y="40" width="90" height="60" as="geometry" />
        </mxCell>
        <mxCell id="t8sbnZ9TbKj6j1BG3d-X-22" value="Tên KH" style="ellipse;whiteSpace=wrap;html=1;fillColor=#E6E6E6;" vertex="1" parent="1">
          <mxGeometry x="645" y="150" width="100" height="60" as="geometry" />
        </mxCell>
        <mxCell id="t8sbnZ9TbKj6j1BG3d-X-23" value="Địa chỉ" style="ellipse;whiteSpace=wrap;html=1;fillColor=#E6E6E6;" vertex="1" parent="1">
          <mxGeometry x="210" y="50" width="90" height="60" as="geometry" />
        </mxCell>
        <mxCell id="t8sbnZ9TbKj6j1BG3d-X-24" value="Số điện thoại" style="ellipse;whiteSpace=wrap;html=1;fillColor=#E6E6E6;" vertex="1" parent="1">
          <mxGeometry x="125" y="170" width="90" height="60" as="geometry" />
        </mxCell>
        <mxCell id="t8sbnZ9TbKj6j1BG3d-X-37" value="" style="rounded=0;orthogonalLoop=1;jettySize=auto;html=1;fillColor=#E6E6E6;" edge="1" parent="1" source="t8sbnZ9TbKj6j1BG3d-X-35" target="t8sbnZ9TbKj6j1BG3d-X-36">
          <mxGeometry relative="1" as="geometry" />
        </mxCell>
        <mxCell id="t8sbnZ9TbKj6j1BG3d-X-39" value="" style="rounded=0;orthogonalLoop=1;jettySize=auto;html=1;entryX=1;entryY=0.5;entryDx=0;entryDy=0;fillColor=#E6E6E6;" edge="1" parent="1" source="t8sbnZ9TbKj6j1BG3d-X-35" target="t8sbnZ9TbKj6j1BG3d-X-38">
          <mxGeometry relative="1" as="geometry" />
        </mxCell>
        <mxCell id="t8sbnZ9TbKj6j1BG3d-X-35" value="Người đặt" style="rounded=1;whiteSpace=wrap;html=1;fillColor=#E6E6E6;" vertex="1" parent="1">
          <mxGeometry x="100" y="440" width="120" height="60" as="geometry" />
        </mxCell>
        <mxCell id="t8sbnZ9TbKj6j1BG3d-X-36" value="Mã NĐ" style="ellipse;whiteSpace=wrap;html=1;fillColor=#E6E6E6;" vertex="1" parent="1">
          <mxGeometry x="-80" y="440" width="90" height="60" as="geometry" />
        </mxCell>
        <mxCell id="t8sbnZ9TbKj6j1BG3d-X-38" value="Tên NĐ" style="ellipse;whiteSpace=wrap;html=1;fillColor=#E6E6E6;" vertex="1" parent="1">
          <mxGeometry x="-80" y="550" width="90" height="60" as="geometry" />
        </mxCell>
        <mxCell id="t8sbnZ9TbKj6j1BG3d-X-45" value="" style="rounded=0;orthogonalLoop=1;jettySize=auto;html=1;entryX=0;entryY=0.5;entryDx=0;entryDy=0;fillColor=#E6E6E6;" edge="1" parent="1" source="t8sbnZ9TbKj6j1BG3d-X-41" target="t8sbnZ9TbKj6j1BG3d-X-42">
          <mxGeometry relative="1" as="geometry">
            <mxPoint x="810" y="455" as="targetPoint" />
          </mxGeometry>
        </mxCell>
        <mxCell id="t8sbnZ9TbKj6j1BG3d-X-71" style="rounded=0;orthogonalLoop=1;jettySize=auto;html=1;entryX=0;entryY=0.5;entryDx=0;entryDy=0;" edge="1" parent="1" source="t8sbnZ9TbKj6j1BG3d-X-41" target="t8sbnZ9TbKj6j1BG3d-X-43">
          <mxGeometry relative="1" as="geometry" />
        </mxCell>
        <mxCell id="t8sbnZ9TbKj6j1BG3d-X-41" value="Người nhận" style="rounded=1;whiteSpace=wrap;html=1;fillColor=#E6E6E6;" vertex="1" parent="1">
          <mxGeometry x="565" y="440" width="120" height="60" as="geometry" />
        </mxCell>
        <mxCell id="t8sbnZ9TbKj6j1BG3d-X-42" value="Mã NN" style="ellipse;whiteSpace=wrap;html=1;fillColor=#E6E6E6;" vertex="1" parent="1">
          <mxGeometry x="780" y="400" width="90" height="60" as="geometry" />
        </mxCell>
        <mxCell id="t8sbnZ9TbKj6j1BG3d-X-43" value="Tên NN" style="ellipse;whiteSpace=wrap;html=1;fillColor=#E6E6E6;" vertex="1" parent="1">
          <mxGeometry x="780" y="490" width="90" height="60" as="geometry" />
        </mxCell>
        <mxCell id="t8sbnZ9TbKj6j1BG3d-X-47" value="" style="rounded=0;orthogonalLoop=1;jettySize=auto;html=1;entryX=0;entryY=0.5;entryDx=0;entryDy=0;fillColor=#E6E6E6;" edge="1" parent="1" source="t8sbnZ9TbKj6j1BG3d-X-49" target="t8sbnZ9TbKj6j1BG3d-X-50">
          <mxGeometry relative="1" as="geometry">
            <mxPoint x="720" y="800" as="targetPoint" />
          </mxGeometry>
        </mxCell>
        <mxCell id="t8sbnZ9TbKj6j1BG3d-X-48" style="rounded=0;orthogonalLoop=1;jettySize=auto;html=1;entryX=0.5;entryY=0;entryDx=0;entryDy=0;fillColor=#E6E6E6;" edge="1" parent="1" source="t8sbnZ9TbKj6j1BG3d-X-49" target="t8sbnZ9TbKj6j1BG3d-X-51">
          <mxGeometry relative="1" as="geometry" />
        </mxCell>
        <mxCell id="t8sbnZ9TbKj6j1BG3d-X-49" value="Người giao" style="rounded=1;whiteSpace=wrap;html=1;fillColor=#E6E6E6;" vertex="1" parent="1">
          <mxGeometry x="385" y="780" width="120" height="60" as="geometry" />
        </mxCell>
        <mxCell id="t8sbnZ9TbKj6j1BG3d-X-50" value="Mã NG" style="ellipse;whiteSpace=wrap;html=1;fillColor=#E6E6E6;" vertex="1" parent="1">
          <mxGeometry x="550" y="820" width="90" height="60" as="geometry" />
        </mxCell>
        <mxCell id="t8sbnZ9TbKj6j1BG3d-X-51" value="Tên NG" style="ellipse;whiteSpace=wrap;html=1;fillColor=#E6E6E6;" vertex="1" parent="1">
          <mxGeometry x="450" y="880" width="90" height="60" as="geometry" />
        </mxCell>
        <mxCell id="t8sbnZ9TbKj6j1BG3d-X-54" style="rounded=0;orthogonalLoop=1;jettySize=auto;html=1;entryX=0.5;entryY=0;entryDx=0;entryDy=0;" edge="1" parent="1" source="t8sbnZ9TbKj6j1BG3d-X-55" target="t8sbnZ9TbKj6j1BG3d-X-57">
          <mxGeometry relative="1" as="geometry" />
        </mxCell>
        <mxCell id="t8sbnZ9TbKj6j1BG3d-X-70" style="rounded=0;orthogonalLoop=1;jettySize=auto;html=1;entryX=0;entryY=0.5;entryDx=0;entryDy=0;" edge="1" parent="1" source="t8sbnZ9TbKj6j1BG3d-X-55" target="t8sbnZ9TbKj6j1BG3d-X-56">
          <mxGeometry relative="1" as="geometry" />
        </mxCell>
        <mxCell id="t8sbnZ9TbKj6j1BG3d-X-55" value="Nơi giao" style="rounded=1;whiteSpace=wrap;html=1;fillColor=#E6E6E6;" vertex="1" parent="1">
          <mxGeometry x="700" y="780" width="120" height="60" as="geometry" />
        </mxCell>
        <mxCell id="t8sbnZ9TbKj6j1BG3d-X-56" value="Mã ĐĐG" style="ellipse;whiteSpace=wrap;html=1;fillColor=#E6E6E6;" vertex="1" parent="1">
          <mxGeometry x="870" y="790" width="90" height="60" as="geometry" />
        </mxCell>
        <mxCell id="t8sbnZ9TbKj6j1BG3d-X-57" value="Tên ĐĐG" style="ellipse;whiteSpace=wrap;html=1;fillColor=#E6E6E6;" vertex="1" parent="1">
          <mxGeometry x="720" y="890" width="90" height="60" as="geometry" />
        </mxCell>
        <mxCell id="t8sbnZ9TbKj6j1BG3d-X-63" value="Số lượng" style="ellipse;whiteSpace=wrap;html=1;" vertex="1" parent="1">
          <mxGeometry x="650" y="580" width="90" height="60" as="geometry" />
        </mxCell>
        <mxCell id="t8sbnZ9TbKj6j1BG3d-X-64" value="Ngày giao" style="ellipse;whiteSpace=wrap;html=1;" vertex="1" parent="1">
          <mxGeometry x="650" y="680" width="90" height="60" as="geometry" />
        </mxCell>
        <mxCell id="t8sbnZ9TbKj6j1BG3d-X-65" value="Đơn giá" style="ellipse;whiteSpace=wrap;html=1;" vertex="1" parent="1">
          <mxGeometry x="400" y="670" width="90" height="60" as="geometry" />
        </mxCell>
        <mxCell id="t8sbnZ9TbKj6j1BG3d-X-67" value="Số PGH" style="ellipse;whiteSpace=wrap;html=1;" vertex="1" parent="1">
          <mxGeometry x="410" y="530" width="90" height="60" as="geometry" />
        </mxCell>
        <mxCell id="t8sbnZ9TbKj6j1BG3d-X-72" value="Số ĐH" style="ellipse;whiteSpace=wrap;html=1;" vertex="1" parent="1">
          <mxGeometry x="80" y="560" width="90" height="60" as="geometry" />
        </mxCell>
        <mxCell id="t8sbnZ9TbKj6j1BG3d-X-73" value="Ngày đặt" style="ellipse;whiteSpace=wrap;html=1;" vertex="1" parent="1">
          <mxGeometry x="70" y="650" width="90" height="60" as="geometry" />
        </mxCell>
        <mxCell id="t8sbnZ9TbKj6j1BG3d-X-74" value="Số lượng" style="ellipse;whiteSpace=wrap;html=1;" vertex="1" parent="1">
          <mxGeometry x="280" y="530" width="90" height="60" as="geometry" />
        </mxCell>
        <mxCell id="t8sbnZ9TbKj6j1BG3d-X-85" value="&lt;b&gt;Thuộc 1&lt;/b&gt;" style="rhombus;whiteSpace=wrap;html=1;fillColor=#CCFFFF;" vertex="1" parent="1">
          <mxGeometry x="120" y="290" width="80" height="80" as="geometry" />
        </mxCell>
        <mxCell id="t8sbnZ9TbKj6j1BG3d-X-86" value="&lt;b&gt;Thuộc 2&lt;/b&gt;" style="rhombus;whiteSpace=wrap;html=1;fillColor=#CCFFFF;" vertex="1" parent="1">
          <mxGeometry x="585" y="290" width="80" height="80" as="geometry" />
        </mxCell>
        <mxCell id="t8sbnZ9TbKj6j1BG3d-X-87" value="" style="fontSize=12;html=1;endArrow=ERoneToMany;rounded=0;entryX=0.5;entryY=0;entryDx=0;entryDy=0;exitX=0.5;exitY=1;exitDx=0;exitDy=0;strokeColor=#FF3333;edgeStyle=orthogonalEdgeStyle;" edge="1" parent="1" source="t8sbnZ9TbKj6j1BG3d-X-2" target="t8sbnZ9TbKj6j1BG3d-X-4">
          <mxGeometry width="100" height="100" relative="1" as="geometry">
            <mxPoint x="275" y="770" as="sourcePoint" />
            <mxPoint x="375" y="670" as="targetPoint" />
          </mxGeometry>
        </mxCell>
        <mxCell id="t8sbnZ9TbKj6j1BG3d-X-88" value="" style="fontSize=12;html=1;endArrow=ERmandOne;rounded=0;exitX=0;exitY=0;exitDx=0;exitDy=0;entryX=0.567;entryY=1.049;entryDx=0;entryDy=0;strokeColor=#FF3333;entryPerimeter=0;edgeStyle=orthogonalEdgeStyle;" edge="1" parent="1" source="t8sbnZ9TbKj6j1BG3d-X-2" target="t8sbnZ9TbKj6j1BG3d-X-35">
          <mxGeometry width="100" height="100" relative="1" as="geometry">
            <mxPoint x="470" y="720" as="sourcePoint" />
            <mxPoint x="570" y="620" as="targetPoint" />
          </mxGeometry>
        </mxCell>
        <mxCell id="t8sbnZ9TbKj6j1BG3d-X-90" value="" style="fontSize=12;html=1;endArrow=ERoneToMany;rounded=0;entryX=0.5;entryY=0;entryDx=0;entryDy=0;exitX=0.357;exitY=0.896;exitDx=0;exitDy=0;strokeColor=#FF3333;edgeStyle=orthogonalEdgeStyle;exitPerimeter=0;" edge="1" parent="1" source="t8sbnZ9TbKj6j1BG3d-X-3">
          <mxGeometry width="100" height="100" relative="1" as="geometry">
            <mxPoint x="530" y="680" as="sourcePoint" />
            <mxPoint x="460" y="780" as="targetPoint" />
            <Array as="points">
              <mxPoint x="559" y="750" />
              <mxPoint x="461" y="750" />
              <mxPoint x="461" y="780" />
            </Array>
          </mxGeometry>
        </mxCell>
        <mxCell id="t8sbnZ9TbKj6j1BG3d-X-91" value="" style="fontSize=12;html=1;endArrow=ERoneToMany;rounded=0;entryX=0.5;entryY=0;entryDx=0;entryDy=0;strokeColor=#FF3333;edgeStyle=orthogonalEdgeStyle;" edge="1" parent="1" source="t8sbnZ9TbKj6j1BG3d-X-3">
          <mxGeometry width="100" height="100" relative="1" as="geometry">
            <mxPoint x="590" y="660" as="sourcePoint" />
            <mxPoint x="750" y="780" as="targetPoint" />
            <Array as="points">
              <mxPoint x="580" y="750" />
              <mxPoint x="751" y="750" />
              <mxPoint x="751" y="780" />
            </Array>
          </mxGeometry>
        </mxCell>
        <mxCell id="t8sbnZ9TbKj6j1BG3d-X-92" value="" style="fontSize=12;html=1;endArrow=ERoneToMany;rounded=0;entryX=0.5;entryY=0;entryDx=0;entryDy=0;strokeColor=#FF3333;edgeStyle=orthogonalEdgeStyle;exitX=0.5;exitY=1;exitDx=0;exitDy=0;exitPerimeter=0;" edge="1" parent="1" source="t8sbnZ9TbKj6j1BG3d-X-85" target="t8sbnZ9TbKj6j1BG3d-X-35">
          <mxGeometry width="100" height="100" relative="1" as="geometry">
            <mxPoint x="160" y="380" as="sourcePoint" />
            <mxPoint x="160" y="430" as="targetPoint" />
          </mxGeometry>
        </mxCell>
        <mxCell id="t8sbnZ9TbKj6j1BG3d-X-93" value="" style="fontSize=12;html=1;endArrow=ERoneToMany;rounded=0;entryX=0.5;entryY=0;entryDx=0;entryDy=0;strokeColor=#FF3333;edgeStyle=orthogonalEdgeStyle;exitX=0.5;exitY=1;exitDx=0;exitDy=0;exitPerimeter=0;" edge="1" parent="1">
          <mxGeometry width="100" height="100" relative="1" as="geometry">
            <mxPoint x="624.76" y="370" as="sourcePoint" />
            <mxPoint x="624.76" y="440" as="targetPoint" />
          </mxGeometry>
        </mxCell>
        <mxCell id="t8sbnZ9TbKj6j1BG3d-X-94" value="" style="fontSize=12;html=1;endArrow=ERmandOne;rounded=0;exitX=0.5;exitY=0;exitDx=0;exitDy=0;entryX=0.567;entryY=1.049;entryDx=0;entryDy=0;strokeColor=#FF3333;entryPerimeter=0;edgeStyle=orthogonalEdgeStyle;" edge="1" parent="1" source="t8sbnZ9TbKj6j1BG3d-X-3">
          <mxGeometry width="100" height="100" relative="1" as="geometry">
            <mxPoint x="692" y="607" as="sourcePoint" />
            <mxPoint x="630" y="500" as="targetPoint" />
            <Array as="points">
              <mxPoint x="570" y="550" />
              <mxPoint x="630" y="550" />
            </Array>
          </mxGeometry>
        </mxCell>
        <mxCell id="t8sbnZ9TbKj6j1BG3d-X-96" value="" style="fontSize=12;html=1;endArrow=ERmandOne;rounded=0;entryX=0.25;entryY=1;entryDx=0;entryDy=0;strokeColor=#FF3333;edgeStyle=orthogonalEdgeStyle;" edge="1" parent="1" target="t8sbnZ9TbKj6j1BG3d-X-20">
          <mxGeometry width="100" height="100" relative="1" as="geometry">
            <mxPoint x="160" y="290" as="sourcePoint" />
            <mxPoint x="158" y="230" as="targetPoint" />
            <Array as="points">
              <mxPoint x="160" y="260" />
              <mxPoint x="385" y="260" />
            </Array>
          </mxGeometry>
        </mxCell>
        <mxCell id="t8sbnZ9TbKj6j1BG3d-X-97" value="" style="fontSize=12;html=1;endArrow=ERmandOne;rounded=0;strokeColor=#FF3333;edgeStyle=orthogonalEdgeStyle;" edge="1" parent="1">
          <mxGeometry width="100" height="100" relative="1" as="geometry">
            <mxPoint x="620" y="290" as="sourcePoint" />
            <mxPoint x="450" y="190" as="targetPoint" />
            <Array as="points">
              <mxPoint x="620" y="260" />
              <mxPoint x="450" y="260" />
              <mxPoint x="450" y="190" />
            </Array>
          </mxGeometry>
        </mxCell>
      </root>
    </mxGraphModel>
  </diagram>
</mxfile>
